<svg width="24" height="24" viewBox="0 0 24 24" fill="none" xmlns="http://www.w3.org/2000/svg">
<path fill-rule="evenodd" clip-rule="evenodd" d="M2.5 9.5C2.5 9.22386 2.72386 9 3 9H21C21.2761 9 21.5 9.22386 21.5 9.5C21.5 9.77614 21.2761 10 21 10H3C2.72386 10 2.5 9.77614 2.5 9.5Z" fill="black"/>
<path fill-rule="evenodd" clip-rule="evenodd" d="M4 9H20L19.2597 18.1611C19.1758 19.1998 18.3083 20 17.2662 20H6.73379C5.69169 20 4.82423 19.1998 4.74029 18.1611L4 9Z" fill="black"/>
<path fill-rule="evenodd" clip-rule="evenodd" d="M14.2969 4.5431C14.0446 4.65525 13.9309 4.95073 14.0431 5.20307L16.0431 9.70307C16.1552 9.95541 16.4507 10.0691 16.7031 9.95691C16.9554 9.84476 17.0691 9.54928 16.9569 9.29693L14.9569 4.79693C14.8448 4.54459 14.5493 4.43094 14.2969 4.5431Z" fill="black"/>
<path fill-rule="evenodd" clip-rule="evenodd" d="M9.70307 4.5431C9.95541 4.65525 10.0691 4.95073 9.95691 5.20307L7.95691 9.70307C7.84476 9.95541 7.54928 10.0691 7.29693 9.95691C7.04459 9.84476 6.93094 9.54928 7.0431 9.29693L9.0431 4.79693C9.15525 4.54459 9.45073 4.43094 9.70307 4.5431Z" fill="black"/>
</svg>
